<svg width="50" height="50" viewBox="0 0 50 50" fill="none" xmlns="http://www.w3.org/2000/svg">
<path d="M42.7083 12.5H32.2917C31.7167 12.5 31.25 12.0312 31.25 11.4583V1.0417C31.25 0.466699 30.7833 0 30.2083 0H9.375C7.65205 0 6.25 1.40205 6.25 3.125V46.875C6.25 48.5979 7.65205 50 9.375 50H40.625C42.3479 50 43.75 48.5979 43.75 46.875V13.5417C43.75 12.9667 43.2833 12.5 42.7083 12.5ZM41.6667 46.875C41.6667 47.4479 41.2 47.9167 40.625 47.9167H9.375C8.8 47.9167 8.3333 47.4479 8.3333 46.875V3.125C8.3333 2.55205 8.8 2.0833 9.375 2.0833H29.1667V11.4583C29.1667 13.1812 30.5687 14.5833 32.2917 14.5833H41.6667V46.875Z" fill="#117BB5"/>
<path d="M43.4437 12.8066L30.9437 0.306641C30.5374 -0.0996094 29.877 -0.0996094 29.4707 0.306641C29.0645 0.712891 29.0645 1.37334 29.4707 1.77959L41.9707 14.2796C42.1749 14.4816 42.4415 14.5838 42.7082 14.5838C42.9749 14.5838 43.2415 14.4817 43.4437 14.2796C43.8499 13.8733 43.8499 13.2129 43.4437 12.8066Z" fill="#117BB5"/>
<path d="M34.375 18.75H15.625C15.05 18.75 14.5833 19.2167 14.5833 19.7917C14.5833 20.3667 15.05 20.8334 15.625 20.8334H34.375C34.95 20.8334 35.4167 20.3667 35.4167 19.7917C35.4167 19.2167 34.95 18.75 34.375 18.75Z" fill="#117BB5"/>
<path d="M34.375 27.083H15.625C15.05 27.083 14.5833 27.5497 14.5833 28.1247C14.5833 28.6997 15.05 29.1664 15.625 29.1664H34.375C34.95 29.1664 35.4167 28.6997 35.4167 28.1247C35.4167 27.5497 34.95 27.083 34.375 27.083Z" fill="#117BB5"/>
<path d="M34.375 35.417H15.625C15.05 35.417 14.5833 35.8837 14.5833 36.4587C14.5833 37.0337 15.05 37.5004 15.625 37.5004H34.375C34.95 37.5004 35.4167 37.0337 35.4167 36.4587C35.4167 35.8836 34.95 35.417 34.375 35.417Z" fill="#117BB5"/>
</svg>
