<svg width="1440" height="434" viewBox="0 0 1440 434" fill="none" xmlns="http://www.w3.org/2000/svg">
<g opacity="0.1">
<path d="M581.573 334.796H588.791C589.181 335.576 589.961 336.161 590.937 336.161C591.912 336.161 592.692 335.576 593.082 334.796H594.383C596.659 335.316 636.388 343.962 697.641 347.538L697.251 371.916H690.423C689.773 371.916 689.253 372.436 689.253 373.086V420.218C689.253 420.868 689.773 421.388 690.423 421.388H778.01C778.66 421.388 779.181 420.868 779.181 420.218V373.086C779.181 372.436 778.66 371.916 778.01 371.916H770.597L769.297 285.909V284.154L768.777 247.684C768.777 247.034 768.257 246.514 767.606 246.514H753.626C752.976 246.514 752.456 247.034 752.456 247.684L752.001 276.288L751.936 279.473L750.57 371.851H744.003L742.702 285.844L742.572 276.223L742.117 247.619C742.117 246.969 741.597 246.449 740.947 246.449H726.966C726.316 246.449 725.796 246.969 725.796 247.619L725.276 280.579L725.211 285.779L723.91 371.786H717.343L716.042 285.779L715.912 276.158L715.457 247.554C715.457 246.904 714.937 246.384 714.287 246.384H700.307C699.656 246.384 699.136 246.904 699.136 247.554L698.681 276.158L698.616 279.343L697.641 345.392C635.088 341.752 595.098 332.781 594.708 332.716C594.643 332.716 594.643 332.716 594.578 332.716H594.513H593.082C592.692 331.936 591.912 331.351 590.937 331.351C589.961 331.351 589.181 331.936 588.791 332.716H581.248L580.533 328.165H588.856C589.246 328.945 590.026 329.53 591.002 329.53C591.977 329.53 592.757 328.945 593.147 328.165H594.448C596.724 328.62 636.323 337.071 696.73 340.712H696.795C697.315 340.712 697.706 340.322 697.771 339.802C697.771 339.282 697.381 338.827 696.86 338.762C635.088 335.056 595.163 326.345 594.773 326.215C594.708 326.215 594.708 326.215 594.643 326.215H594.578H593.147C592.757 325.435 591.977 324.85 591.002 324.85C590.026 324.85 589.246 325.435 588.856 326.215H580.273L577.737 310.353C577.607 309.443 576.826 308.857 575.981 308.857C575.071 308.857 574.355 309.508 574.225 310.353L571.689 326.215H564.017C563.627 325.435 562.846 324.85 561.871 324.85C560.895 324.85 560.115 325.435 559.725 326.215H557.254H557.189C557.124 326.215 557.124 326.215 557.059 326.215H556.994C556.929 326.215 556.929 326.215 556.864 326.28C556.799 326.345 548.801 329.92 533.065 332.131C532.545 332.196 532.155 332.716 532.22 333.236C532.285 333.756 532.675 334.081 533.195 334.081C533.26 334.081 533.26 334.081 533.325 334.081C548.216 332.001 556.084 328.75 557.449 328.165H559.595C559.985 328.945 560.765 329.53 561.741 329.53C562.716 329.53 563.496 328.945 563.887 328.165H571.234L570.519 332.716H563.887C563.496 331.936 562.716 331.351 561.741 331.351C560.765 331.351 559.985 331.936 559.595 332.716H557.254C557.254 332.716 557.254 332.716 557.189 332.716C557.124 332.716 557.124 332.716 557.059 332.716H556.994H556.929C556.929 332.716 556.864 332.716 556.864 332.781C556.864 332.781 556.864 332.781 556.799 332.781C556.734 332.846 548.801 337.006 533.065 339.217C532.545 339.282 532.155 339.802 532.22 340.322C532.285 340.842 532.675 341.167 533.195 341.167C533.26 341.167 533.26 341.167 533.325 341.167C548.151 339.087 556.084 335.381 557.449 334.666H559.595C559.985 335.446 560.765 336.031 561.741 336.031C562.716 336.031 563.496 335.446 563.887 334.666H570.194L567.333 352.478C567.268 352.674 567.203 352.869 567.268 353.064L556.474 419.828C556.409 420.348 556.734 420.868 557.254 420.933C557.774 420.998 558.295 420.673 558.36 420.153L562.651 393.629L575.916 381.212L589.181 393.629L593.472 420.088C593.537 420.543 593.993 420.933 594.448 420.933C594.513 420.933 594.578 420.933 594.578 420.933C595.098 420.868 595.488 420.348 595.358 419.828L581.573 334.796ZM776.905 419.048H691.658V374.256H698.421H716.172H725.081H742.832H751.74H769.492H776.905V419.048ZM766.436 248.919L766.826 275.118H754.471L754.862 248.919H766.436ZM754.341 281.229L754.406 277.523H766.891L767.021 284.739H754.276L754.341 281.229ZM754.211 287.144H766.956L768.257 371.916H752.976L754.211 287.144ZM740.296 284.739H727.617L727.747 277.523H740.231L740.296 281.164V284.739ZM739.776 248.919L740.166 275.118H727.812L728.202 248.919H739.776ZM727.617 287.144H740.361L741.662 371.916H726.316L727.617 287.144ZM699.656 371.916L700.957 287.144H713.701L715.002 371.916H699.656ZM701.087 277.523H713.571V277.913L713.701 284.674H700.957L701.022 279.538L701.087 277.523ZM713.116 248.919L713.506 275.118H701.087L701.477 248.919H713.116ZM571.299 339.997L574.681 344.027L569.739 349.683L571.299 339.997ZM577.607 334.796L579.882 338.046L575.981 342.532L572.21 338.046L574.42 334.796H577.607ZM575.721 332.846L575.981 332.521L576.241 332.846H575.721ZM582.028 349.748L577.216 344.027L580.468 340.257L582.028 349.748ZM582.223 352.999L575.916 358.979L569.544 352.934L575.981 345.523L582.223 352.999ZM574.485 360.345L566.878 367.561L568.893 355.079L574.485 360.345ZM575.916 361.645L584.889 370.161L575.851 378.612L566.878 370.161L575.916 361.645ZM577.347 360.345L582.939 355.079L584.954 367.496L577.347 360.345ZM578.582 332.846L577.086 330.765L578.582 328.62L579.297 332.846H578.582ZM575.916 329.075L575.396 328.295H576.436L575.916 329.075ZM575.851 311.653L578.127 325.76L577.737 326.345H573.965L573.575 325.76L575.851 311.653ZM573.185 328.555L574.811 330.83L573.445 332.911H572.535L573.185 328.555ZM563.171 390.574L566.162 372.176L574.485 379.977L563.171 390.574ZM577.281 379.977L585.605 372.176L588.596 390.639L577.281 379.977Z" fill="#74A2B4"/>
<path d="M781.132 303.136V420.218C781.132 420.868 781.652 421.388 782.302 421.388H849.667H917.031C917.682 421.388 918.202 420.868 918.202 420.218V270.892C918.202 270.502 918.007 270.112 917.617 269.852C917.291 269.657 916.836 269.592 916.446 269.787L850.772 301.251V270.892C850.772 270.502 850.577 270.112 850.187 269.852C849.862 269.657 849.407 269.592 849.016 269.787L781.847 302.096C781.392 302.291 781.132 302.681 781.132 303.136ZM915.926 272.777V418.982H850.967V303.916L915.926 272.777ZM783.537 303.916L848.496 272.777V303.136V418.982H783.537V303.916Z" fill="#74A2B4"/>
<path d="M845.505 284.415L785.683 313.083C785.098 313.344 784.838 314.059 785.098 314.644C785.293 315.099 785.748 315.294 786.203 315.294C786.398 315.294 786.528 315.229 786.723 315.164L846.545 286.495C847.131 286.235 847.391 285.52 847.131 284.935C846.806 284.415 846.09 284.154 845.505 284.415Z" fill="#74A2B4"/>
<path d="M853.568 315.359C853.763 315.359 853.893 315.294 854.088 315.229L913.91 286.56C914.495 286.3 914.755 285.584 914.495 284.999C914.235 284.414 913.52 284.154 912.935 284.414L853.113 313.083C852.528 313.343 852.267 314.058 852.528 314.643C852.723 315.099 853.113 315.359 853.568 315.359Z" fill="#74A2B4"/>
<path d="M714.872 380.043H698.486C697.836 380.043 697.316 380.563 697.316 381.213V386.869C697.316 387.519 697.836 388.039 698.486 388.039H714.872C715.522 388.039 716.042 387.519 716.042 386.869V381.213C716.042 380.563 715.522 380.043 714.872 380.043ZM713.702 385.699H699.657V382.383H713.702V385.699Z" fill="#74A2B4"/>
<path d="M742.182 380.043H725.796C725.146 380.043 724.626 380.563 724.626 381.213V386.869C724.626 387.519 725.146 388.039 725.796 388.039H742.182C742.832 388.039 743.353 387.519 743.353 386.869V381.213C743.353 380.563 742.832 380.043 742.182 380.043ZM740.947 385.699H726.967V382.383H741.012V385.699H740.947Z" fill="#74A2B4"/>
<path d="M753.041 380.043C752.391 380.043 751.871 380.563 751.871 381.213V386.869C751.871 387.519 752.391 388.039 753.041 388.039H769.427C770.078 388.039 770.598 387.519 770.598 386.869V381.213C770.598 380.563 770.078 380.043 769.427 380.043H753.041ZM768.257 385.699H754.277V382.383H768.322V385.699H768.257Z" fill="#74A2B4"/>
<path d="M1084.66 421.258H1181.35C1182 421.258 1182.52 420.738 1182.52 420.088V390.249C1182.52 389.599 1182 389.079 1181.35 389.079H1175.18V349.293C1175.18 346.888 1173.22 344.938 1170.82 344.938H1163.02V336.421C1163.02 332.651 1160.74 329.401 1157.42 327.97V325.76C1157.42 325.305 1157.03 324.915 1156.58 324.915H1150.34C1149.88 324.915 1149.49 325.305 1149.49 325.76V328.035C1146.24 329.466 1144.03 332.716 1144.03 336.421V340.387H1129.79C1129.27 340.387 1128.81 339.932 1128.81 339.412V313.148C1128.81 310.353 1126.54 308.143 1123.81 308.143H1106.32C1103.45 308.143 1101.11 310.483 1101.11 313.343V324.85H1100.27C1099.81 324.85 1099.42 325.24 1099.42 325.695V327.775C1096.17 329.075 1093.9 332.261 1093.9 335.966V373.282H1084.73C1084.08 373.282 1083.56 373.802 1083.56 374.452V420.088C1083.49 420.738 1084.01 421.258 1084.66 421.258ZM1170.82 346.563C1172.31 346.563 1173.48 347.733 1173.48 349.228V389.014H1172.44V349.358C1172.44 348.318 1171.6 347.473 1170.56 347.473H1162.95V346.498H1170.82V346.563ZM1162.95 382.253V349.228H1170.56C1170.62 349.228 1170.75 349.293 1170.75 349.423V389.079H1159.96C1161.78 387.324 1162.95 384.918 1162.95 382.253ZM1151.12 326.54H1155.67V327.385C1155.08 327.255 1154.43 327.19 1153.78 327.19H1153.13C1152.42 327.19 1151.77 327.255 1151.12 327.385V326.54ZM1146.31 336.356C1146.31 332.586 1149.36 329.531 1153.13 329.531H1153.78C1157.55 329.531 1160.61 332.586 1160.61 336.356V382.253C1160.61 385.958 1157.62 388.949 1153.98 389.079H1153C1149.3 389.014 1146.37 385.958 1146.37 382.253V336.356H1146.31ZM1132.32 373.282H1112.82V340.322H1116.65V350.984C1116.65 353.714 1118.86 355.859 1121.53 355.859H1143.83V382.188C1143.83 384.853 1145 387.324 1146.89 389.014H1133.5V374.452C1133.56 373.802 1133.04 373.282 1132.32 373.282ZM1106.51 324.85H1105.73V313.408C1105.73 313.083 1105.99 312.758 1106.38 312.758H1123.42C1123.81 312.758 1124.13 313.083 1124.13 313.473V339.802C1124.13 342.727 1126.47 345.068 1129.4 345.068H1144.03V351.439H1121.92C1121.66 351.439 1121.47 351.244 1121.47 350.984V340.452C1121.47 337.852 1119.39 335.771 1116.78 335.771H1112.95C1112.88 332.131 1110.61 329.075 1107.42 327.775V325.695C1107.36 325.175 1106.97 324.85 1106.51 324.85ZM1116.72 338.632H1112.88V337.527H1116.72C1118.34 337.527 1119.71 338.892 1119.71 340.517V350.984C1119.71 352.154 1120.69 353.129 1121.86 353.129H1143.96V354.234H1121.66C1119.91 354.234 1118.47 352.804 1118.47 351.049V340.387C1118.41 339.412 1117.63 338.632 1116.72 338.632ZM1102.74 313.213C1102.74 311.328 1104.3 309.768 1106.19 309.768H1123.68C1125.5 309.768 1126.99 311.263 1126.99 313.083V339.347C1126.99 340.777 1128.16 342.012 1129.66 342.012H1143.9V343.312H1129.27C1127.32 343.312 1125.69 341.687 1125.69 339.737V313.408C1125.69 312.108 1124.65 311.003 1123.29 311.003H1106.25C1104.95 311.003 1103.91 312.043 1103.91 313.343V324.85H1102.67V313.213H1102.74ZM1101.05 326.54H1105.6V327.32C1105.08 327.255 1104.56 327.19 1104.04 327.19H1102.67C1102.15 327.19 1101.57 327.255 1101.11 327.32V326.54H1101.05ZM1096.24 335.966C1096.24 332.391 1099.1 329.531 1102.67 329.531H1104.04C1107.62 329.531 1110.48 332.391 1110.48 335.966V373.282H1096.24V335.966ZM1085.83 375.622H1131.15V390.184C1131.15 390.834 1131.67 391.354 1132.32 391.354H1152.94C1153 391.354 1153.07 391.354 1153.07 391.354H1153.72C1153.78 391.354 1153.85 391.354 1153.85 391.354H1180.05V418.853H1085.77V375.622H1085.83Z" fill="#74A2B4"/>
<path d="M757.723 237.737C757.853 239.102 758.438 240.338 759.478 241.248C760.389 242.028 761.559 242.483 762.795 242.483C762.925 242.483 763.055 242.483 763.185 242.483C764.81 242.353 766.241 241.443 767.151 240.143C768.062 240.468 769.102 240.663 770.077 240.533C771.963 240.403 773.719 239.492 774.889 237.997C776.255 238.777 777.815 239.167 779.441 239.037C781.521 238.907 783.342 237.932 784.708 236.372C786.073 234.812 786.723 232.797 786.528 230.716C786.203 226.491 782.497 223.305 778.205 223.63C775.669 223.825 773.459 225.255 772.158 227.401C771.183 227.011 770.142 226.816 769.037 226.881C765.981 227.141 763.51 229.286 762.925 232.211C762.795 232.211 762.6 232.211 762.469 232.211C761.104 232.341 759.869 232.927 758.958 233.967C758.048 235.007 757.593 236.372 757.723 237.737ZM760.714 235.527C761.169 234.942 761.884 234.617 762.6 234.552C762.665 234.552 762.73 234.552 762.795 234.552C763.055 234.552 763.315 234.617 763.575 234.682C763.9 234.812 764.29 234.747 764.615 234.487C764.94 234.227 765.07 233.902 765.135 233.577C765.2 231.301 766.956 229.416 769.232 229.286C770.207 229.221 771.183 229.481 772.028 230.001C772.353 230.196 772.678 230.261 773.068 230.131C773.394 230.001 773.719 229.741 773.849 229.416C774.564 227.466 776.385 226.101 778.4 225.971C779.831 225.841 781.196 226.296 782.302 227.206C783.407 228.116 784.057 229.416 784.187 230.846C784.318 232.276 783.862 233.642 782.952 234.747C782.042 235.852 780.741 236.502 779.311 236.632C777.88 236.762 776.515 236.307 775.409 235.397C775.149 235.137 774.759 235.072 774.434 235.137C774.109 235.202 773.784 235.462 773.589 235.787C772.873 237.152 771.508 238.062 770.012 238.192C769.037 238.257 768.127 238.062 767.346 237.542C767.021 237.347 766.631 237.282 766.306 237.412C765.981 237.542 765.721 237.802 765.591 238.192C765.266 239.297 764.29 240.013 763.185 240.143C762.469 240.208 761.754 239.948 761.169 239.492C760.584 239.037 760.259 238.322 760.194 237.607C759.999 236.827 760.259 236.112 760.714 235.527Z" fill="#74A2B4"/>
<path d="M729.828 237.737C729.958 239.102 730.543 240.338 731.583 241.248C732.493 242.028 733.664 242.483 734.899 242.483C735.029 242.483 735.159 242.483 735.29 242.483C736.915 242.353 738.346 241.443 739.256 240.143C740.166 240.468 741.207 240.663 742.182 240.533C744.068 240.403 745.823 239.492 746.994 237.997C748.359 238.777 749.92 239.167 751.545 239.037C753.626 238.907 755.447 237.932 756.812 236.372C758.178 234.812 758.828 232.797 758.633 230.716C758.308 226.491 754.602 223.305 750.31 223.63C747.774 223.825 745.563 225.255 744.263 227.401C743.287 227.011 742.247 226.816 741.142 226.881C738.086 227.141 735.615 229.286 735.029 232.211C734.899 232.211 734.704 232.211 734.574 232.211C733.209 232.341 731.973 232.927 731.063 233.967C730.153 235.007 729.697 236.372 729.828 237.737ZM732.884 235.527C733.339 234.942 734.054 234.617 734.769 234.552C734.834 234.552 734.899 234.552 734.964 234.552C735.225 234.552 735.485 234.617 735.745 234.682C736.07 234.812 736.46 234.747 736.785 234.487C737.11 234.292 737.24 233.902 737.305 233.577C737.37 231.301 739.126 229.416 741.402 229.286C742.377 229.221 743.352 229.481 744.198 230.001C744.523 230.196 744.848 230.261 745.238 230.131C745.563 230.001 745.888 229.741 746.018 229.416C746.734 227.466 748.554 226.101 750.57 225.971C753.496 225.711 756.097 227.921 756.292 230.911C756.422 232.341 755.967 233.707 755.057 234.812C754.146 235.917 752.846 236.567 751.415 236.697C749.985 236.827 748.619 236.372 747.514 235.462C747.254 235.202 746.864 235.137 746.539 235.202C746.213 235.267 745.888 235.527 745.693 235.852C744.978 237.217 743.613 238.127 742.117 238.257C741.142 238.322 740.231 238.127 739.451 237.607C739.126 237.412 738.736 237.347 738.411 237.477C738.086 237.607 737.825 237.867 737.695 238.257C737.37 239.362 736.395 240.078 735.29 240.208C734.574 240.273 733.859 240.013 733.274 239.557C732.689 239.102 732.363 238.387 732.298 237.672C732.168 236.827 732.363 236.112 732.884 235.527Z" fill="#74A2B4"/>
<path d="M703.753 241.248C704.664 242.028 705.834 242.483 707.07 242.483C707.2 242.483 707.33 242.483 707.46 242.483C709.085 242.353 710.516 241.443 711.426 240.143C712.336 240.468 713.377 240.663 714.352 240.533C716.238 240.403 717.994 239.492 719.164 237.997C720.529 238.777 722.09 239.167 723.716 239.037C725.796 238.907 727.617 237.932 728.983 236.372C730.348 234.812 730.998 232.797 730.803 230.716C730.478 226.491 726.772 223.305 722.48 223.63C719.944 223.825 717.733 225.255 716.433 227.401C715.458 227.011 714.417 226.816 713.312 226.881C710.256 227.141 707.785 229.286 707.2 232.211C707.07 232.211 706.874 232.211 706.744 232.211C705.379 232.341 704.143 232.927 703.233 233.967C702.323 235.007 701.933 236.307 701.998 237.672C702.063 239.102 702.713 240.338 703.753 241.248ZM704.989 235.527C705.444 234.942 706.159 234.617 706.874 234.552C706.939 234.552 707.005 234.552 707.07 234.552C707.33 234.552 707.59 234.617 707.85 234.682C708.175 234.812 708.565 234.747 708.89 234.487C709.215 234.292 709.345 233.902 709.41 233.577C709.475 231.301 711.231 229.416 713.507 229.286C714.482 229.221 715.458 229.481 716.303 230.001C716.628 230.196 716.953 230.261 717.343 230.131C717.668 230.001 717.994 229.741 718.124 229.416C718.839 227.466 720.66 226.101 722.675 225.971C725.601 225.711 728.202 227.921 728.397 230.911C728.527 232.341 728.072 233.707 727.162 234.812C726.252 235.917 724.951 236.567 723.521 236.697C722.09 236.827 720.725 236.372 719.619 235.462C719.359 235.202 718.969 235.137 718.644 235.202C718.319 235.267 717.994 235.527 717.798 235.852C717.083 237.217 715.718 238.127 714.222 238.257C713.247 238.322 712.337 238.127 711.556 237.607C711.231 237.412 710.841 237.347 710.516 237.477C710.191 237.607 709.931 237.867 709.801 238.257C709.475 239.362 708.5 240.078 707.395 240.208C706.679 240.273 705.964 240.013 705.379 239.557C704.794 239.102 704.469 238.387 704.404 237.672C704.274 236.827 704.534 236.112 704.989 235.527Z" fill="#74A2B4"/>
<path d="M947.267 228.962C948.568 230.002 950.128 230.522 951.754 230.522C952.014 230.522 952.339 230.522 952.599 230.457C955.916 230.067 958.516 227.402 958.907 224.216C959.882 224.541 960.857 224.671 961.898 224.541C963.913 224.281 965.669 223.176 966.775 221.551C967.88 222.461 969.31 222.851 970.741 222.721C971.716 222.591 972.562 222.266 973.342 221.681C974.968 223.826 977.633 225.062 980.364 224.736C983.16 224.411 985.436 222.591 986.477 220.056C987.517 220.771 988.818 221.096 990.053 220.901C990.963 220.771 991.809 220.446 992.524 219.926C993.694 220.641 995.06 220.966 996.49 220.836C998.376 220.641 1000.07 219.471 1000.98 217.846C1001.69 218.041 1002.47 218.106 1003.25 218.041C1006.05 217.716 1008.26 215.44 1008.52 212.645C1011.12 211.345 1012.68 208.549 1012.36 205.559C1011.9 201.723 1008.45 198.993 1004.62 199.448C1003.64 199.578 1002.73 199.903 1001.89 200.358C1000.78 199.773 999.546 199.513 998.246 199.643C996.946 199.773 995.71 200.423 994.735 201.333C993.434 200.098 991.679 199.513 989.858 199.708C987.647 199.968 985.827 201.398 985.046 203.349C984.071 202.828 982.965 202.633 981.86 202.763C981.21 202.828 980.56 203.023 979.974 203.349C978.609 201.983 976.658 201.268 974.642 201.528C972.367 201.788 970.481 203.218 969.506 205.234C968.4 204.714 967.1 204.519 965.864 204.649C964.759 204.779 963.783 205.169 962.873 205.754C961.248 204.454 959.167 203.934 957.086 204.129C952.729 204.649 949.673 208.614 950.193 212.905C950.324 213.88 950.519 214.92 951.039 215.96C950.974 215.96 950.909 215.96 950.844 215.96C948.893 216.22 947.202 217.13 946.032 218.691C944.861 220.251 944.276 222.136 944.536 224.021C944.796 226.102 945.772 227.792 947.267 228.962ZM947.918 220.316C948.698 219.276 949.868 218.626 951.169 218.496C951.624 218.431 952.144 218.366 952.599 218.366C952.859 218.366 953.119 218.366 953.315 218.431C953.77 218.496 954.095 218.431 954.42 218.171C954.68 217.911 954.875 217.52 954.81 217.195C954.81 216.87 954.615 216.545 954.355 216.35C952.989 215.31 952.794 214.14 952.599 212.775C952.209 209.719 954.42 206.989 957.411 206.664C959.102 206.469 960.792 207.054 962.028 208.289C962.483 208.744 963.198 208.744 963.718 208.354C964.434 207.704 965.279 207.314 966.189 207.184C967.36 207.054 968.53 207.379 969.441 208.094C969.766 208.354 970.221 208.419 970.611 208.289C971.001 208.159 971.261 207.769 971.391 207.379C971.716 205.624 973.147 204.259 974.968 204.064C976.463 203.869 977.959 204.519 978.804 205.819C978.999 206.079 979.324 206.274 979.649 206.339C979.974 206.404 980.299 206.274 980.56 206.014C981.015 205.624 981.535 205.364 982.185 205.299C983.226 205.169 984.201 205.624 984.851 206.404C985.176 206.794 985.696 206.989 986.152 206.794C986.607 206.664 986.932 206.209 986.997 205.689C987.062 203.869 988.427 202.438 990.183 202.243C991.614 202.048 993.044 202.763 993.759 203.999C993.955 204.389 994.345 204.584 994.8 204.584C995.255 204.584 995.645 204.324 995.84 203.999C996.425 202.958 997.401 202.308 998.571 202.178C999.481 202.048 1000.46 202.308 1001.17 202.893C1001.63 203.218 1002.21 203.218 1002.6 202.893C1003.25 202.373 1004.03 202.048 1004.88 201.983C1007.41 201.658 1009.69 203.479 1009.95 206.014C1010.21 208.159 1008.97 210.174 1006.96 210.89C1006.44 211.085 1006.11 211.54 1006.18 212.06C1006.24 213.945 1004.88 215.57 1002.99 215.83C1002.28 215.895 1001.56 215.765 1000.91 215.44C1000.59 215.31 1000.26 215.245 999.937 215.375C999.612 215.505 999.351 215.765 999.286 216.09C998.831 217.455 997.661 218.431 996.295 218.561C995.255 218.691 994.215 218.366 993.369 217.585C993.109 217.39 992.849 217.26 992.524 217.26C992.199 217.26 991.939 217.39 991.679 217.65C991.223 218.171 990.573 218.496 989.858 218.626C988.688 218.756 987.517 218.171 986.932 217.13C986.672 216.675 986.152 216.415 985.631 216.545C985.111 216.675 984.721 217.13 984.721 217.65C984.526 220.121 982.64 222.136 980.169 222.461C977.894 222.721 975.683 221.486 974.772 219.341C974.577 218.951 974.187 218.691 973.797 218.626C973.342 218.561 972.952 218.821 972.692 219.146C972.237 219.861 971.456 220.381 970.611 220.446C969.44 220.576 968.27 219.991 967.685 218.951C967.425 218.496 966.97 218.301 966.514 218.366C966.059 218.431 965.604 218.756 965.474 219.211C964.954 220.901 963.523 222.136 961.768 222.331C960.597 222.461 959.492 222.136 958.581 221.421C958.191 221.096 957.671 221.096 957.216 221.356C956.826 221.616 956.566 222.071 956.631 222.591V222.721C956.631 222.786 956.631 222.786 956.631 222.851C956.956 225.517 955.07 227.922 952.404 228.247C951.104 228.377 949.868 228.052 948.828 227.272C947.788 226.492 947.137 225.322 947.007 224.021C946.747 222.591 947.137 221.291 947.918 220.316Z" fill="#74A2B4"/>
<path d="M921.713 421.454H996.035C996.685 421.454 997.206 420.933 997.206 420.283V347.538C997.206 346.888 996.685 346.368 996.035 346.368H921.713C921.063 346.368 920.542 346.888 920.542 347.538V420.218C920.542 420.933 921.063 421.454 921.713 421.454ZM922.948 348.709H994.865V419.048H922.948V348.709Z" fill="#74A2B4"/>
<path d="M999.481 299.302V420.283C999.481 420.933 1000 421.453 1000.65 421.453H1080.05C1080.7 421.453 1081.22 420.933 1081.22 420.283V299.302C1081.22 298.652 1080.7 298.131 1080.05 298.131H1000.65C1000 298.066 999.481 298.587 999.481 299.302ZM1023.09 418.853V381.928C1023.09 379.588 1024.97 377.702 1027.31 377.702H1027.77C1030.04 377.702 1031.86 379.523 1031.86 381.798V418.853H1023.09ZM1048.31 418.723V381.993C1048.31 379.653 1050.2 377.767 1052.54 377.767H1053C1055.27 377.767 1057.09 379.588 1057.09 381.863V418.723H1048.31ZM1001.89 300.472H1078.94V419.048H1059.5V381.863C1059.5 378.288 1056.57 375.362 1053 375.362H1052.54C1048.9 375.362 1045.97 378.288 1045.97 381.928V419.048H1034.2V381.863C1034.2 378.288 1031.28 375.362 1027.7 375.362H1027.25C1023.61 375.362 1020.68 378.288 1020.68 381.928V419.048H1001.89V300.472Z" fill="#74A2B4"/>
<path d="M1003.51 285.389V293.646C1003.51 294.296 1004.03 294.816 1004.68 294.816H1075.3C1075.95 294.816 1076.47 294.296 1076.47 293.646V285.324C1076.47 284.674 1075.95 284.154 1075.3 284.154H1004.68C1004.1 284.154 1003.51 284.674 1003.51 285.389ZM1005.92 286.56H1074.19V292.475H1005.92V286.56Z" fill="#74A2B4"/>
<path d="M1011.12 326.085H1026.08C1026.73 326.085 1027.25 325.565 1027.25 324.915V309.963C1027.25 309.313 1026.73 308.793 1026.08 308.793H1011.12C1010.47 308.793 1009.95 309.313 1009.95 309.963V324.915C1009.89 325.565 1010.47 326.085 1011.12 326.085ZM1012.29 311.198H1024.84V323.745H1012.29V311.198Z" fill="#74A2B4"/>
<path d="M1033.03 326.085H1047.99C1048.64 326.085 1049.16 325.565 1049.16 324.915V309.963C1049.16 309.313 1048.64 308.793 1047.99 308.793H1033.03C1032.38 308.793 1031.86 309.313 1031.86 309.963V324.915C1031.86 325.565 1032.38 326.085 1033.03 326.085ZM1034.27 311.198H1046.82V323.745H1034.27V311.198Z" fill="#74A2B4"/>
<path d="M1011.12 346.758H1026.08C1026.73 346.758 1027.25 346.238 1027.25 345.588V330.636C1027.25 329.986 1026.73 329.466 1026.08 329.466H1011.12C1010.47 329.466 1009.95 329.986 1009.95 330.636V345.588C1009.89 346.238 1010.47 346.758 1011.12 346.758ZM1012.29 331.871H1024.84V344.418H1012.29V331.871Z" fill="#74A2B4"/>
<path d="M1033.03 346.758H1047.99C1048.64 346.758 1049.16 346.238 1049.16 345.588V330.636C1049.16 329.986 1048.64 329.466 1047.99 329.466H1033.03C1032.38 329.466 1031.86 329.986 1031.86 330.636V345.588C1031.86 346.238 1032.38 346.758 1033.03 346.758ZM1034.27 331.871H1046.82V344.418H1034.27V331.871Z" fill="#74A2B4"/>
<path d="M1026.14 367.496C1026.79 367.496 1027.31 366.975 1027.31 366.325V351.373C1027.31 350.723 1026.79 350.203 1026.14 350.203H1011.19C1010.54 350.203 1010.02 350.723 1010.02 351.373V366.325C1010.02 366.975 1010.54 367.496 1011.19 367.496H1026.14ZM1012.42 352.543H1024.97V365.09H1012.42V352.543Z" fill="#74A2B4"/>
<path d="M1033.03 367.496H1047.99C1048.64 367.496 1049.16 366.975 1049.16 366.325V351.373C1049.16 350.723 1048.64 350.203 1047.99 350.203H1033.03C1032.38 350.203 1031.86 350.723 1031.86 351.373V366.325C1031.86 366.975 1032.38 367.496 1033.03 367.496ZM1034.27 352.543H1046.82V365.09H1034.27V352.543Z" fill="#74A2B4"/>
<path d="M1055.08 326.085H1070.03C1070.68 326.085 1071.2 325.565 1071.2 324.915V309.963C1071.2 309.313 1070.68 308.793 1070.03 308.793H1055.08C1054.43 308.793 1053.91 309.313 1053.91 309.963V324.915C1053.84 325.565 1054.43 326.085 1055.08 326.085ZM1056.25 311.198H1068.8V323.745H1056.25V311.198Z" fill="#74A2B4"/>
<path d="M1055.08 346.758H1070.03C1070.68 346.758 1071.2 346.238 1071.2 345.588V330.636C1071.2 329.986 1070.68 329.466 1070.03 329.466H1055.08C1054.43 329.466 1053.91 329.986 1053.91 330.636V345.588C1053.84 346.238 1054.43 346.758 1055.08 346.758ZM1056.25 331.871H1068.8V344.418H1056.25V331.871Z" fill="#74A2B4"/>
<path d="M1055.08 367.496H1070.03C1070.68 367.496 1071.2 366.975 1071.2 366.325V351.373C1071.2 350.723 1070.68 350.203 1070.03 350.203H1055.08C1054.43 350.203 1053.91 350.723 1053.91 351.373V366.325C1053.84 366.975 1054.43 367.496 1055.08 367.496ZM1056.25 352.543H1068.8V365.09H1056.25V352.543Z" fill="#74A2B4"/>
<path d="M931.596 260.101H932.962L931.401 344.288C931.401 344.938 931.922 345.523 932.572 345.523C933.222 345.523 933.742 345.003 933.742 344.353L934.718 290.526H959.687L960.727 344.353C960.727 345.003 961.247 345.523 961.898 345.523C962.548 345.523 963.068 344.938 963.068 344.288L961.442 260.101H962.808C963.458 260.101 963.978 259.581 963.978 258.931V250.22C963.978 249.57 963.458 249.05 962.808 249.05H961.247L960.987 236.633C960.987 235.983 960.467 235.463 959.817 235.463H934.523C933.872 235.463 933.352 235.983 933.352 236.633L933.092 249.05H931.531C930.881 249.05 930.361 249.57 930.361 250.22V258.931C930.426 259.581 930.946 260.101 931.596 260.101ZM934.978 288.12L935.238 277.264H959.232L959.362 288.12H934.978ZM932.767 251.455H934.328C934.978 251.455 935.498 250.935 935.498 250.285L935.758 237.868H958.711L958.972 250.285C958.972 250.935 959.492 251.455 960.142 251.455H961.703V257.761H960.337C960.012 257.761 959.687 257.891 959.492 258.151C959.297 258.411 959.167 258.671 959.167 258.996L959.492 274.923H935.108L935.433 258.996C935.433 258.671 935.303 258.346 935.108 258.151C934.913 257.891 934.588 257.826 934.263 257.826H932.897V251.455H932.767Z" fill="#74A2B4"/>
<path d="M935.368 380.562C934.718 380.562 934.198 381.083 934.198 381.733V399.545C934.198 400.195 934.718 400.715 935.368 400.715C936.018 400.715 936.539 400.195 936.539 399.545V381.733C936.539 381.083 936.018 380.562 935.368 380.562Z" fill="#74A2B4"/>
<path d="M950.388 380.562C949.738 380.562 949.218 381.083 949.218 381.733V399.545C949.218 400.195 949.738 400.715 950.388 400.715C951.038 400.715 951.559 400.195 951.559 399.545V381.733C951.624 381.083 951.038 380.562 950.388 380.562Z" fill="#74A2B4"/>
<path d="M965.474 380.562C964.824 380.562 964.304 381.083 964.304 381.733V399.545C964.304 400.195 964.824 400.715 965.474 400.715C966.124 400.715 966.645 400.195 966.645 399.545V381.733C966.645 381.083 966.124 380.562 965.474 380.562Z" fill="#74A2B4"/>
<path d="M980.495 380.562C979.844 380.562 979.324 381.083 979.324 381.733V399.545C979.324 400.195 979.844 400.715 980.495 400.715C981.145 400.715 981.665 400.195 981.665 399.545V381.733C981.665 381.083 981.145 380.562 980.495 380.562Z" fill="#74A2B4"/>
<path d="M935.368 403.511C934.718 403.511 934.198 404.031 934.198 404.681V410.402C934.198 411.052 934.718 411.572 935.368 411.572C936.018 411.572 936.539 411.052 936.539 410.402V404.681C936.539 404.031 936.018 403.511 935.368 403.511Z" fill="#74A2B4"/>
<path d="M950.388 403.511C949.738 403.511 949.218 404.031 949.218 404.681V410.402C949.218 411.052 949.738 411.572 950.388 411.572C951.038 411.572 951.559 411.052 951.559 410.402V404.681C951.624 404.031 951.038 403.511 950.388 403.511Z" fill="#74A2B4"/>
<path d="M965.474 403.511C964.824 403.511 964.304 404.031 964.304 404.681V410.402C964.304 411.052 964.824 411.572 965.474 411.572C966.124 411.572 966.645 411.052 966.645 410.402V404.681C966.645 404.031 966.124 403.511 965.474 403.511Z" fill="#74A2B4"/>
<path d="M980.495 403.511C979.844 403.511 979.324 404.031 979.324 404.681V410.402C979.324 411.052 979.844 411.572 980.495 411.572C981.145 411.572 981.665 411.052 981.665 410.402V404.681C981.665 404.031 981.145 403.511 980.495 403.511Z" fill="#74A2B4"/>
<path d="M986.151 358.59H931.596C930.946 358.59 930.426 359.11 930.426 359.76V368.796C930.426 369.446 930.946 369.966 931.596 369.966H986.151C986.802 369.966 987.322 369.446 987.322 368.796V359.76C987.387 359.11 986.802 358.59 986.151 358.59ZM984.981 367.561H932.767V360.93H984.981V367.561Z" fill="#74A2B4"/>
<path d="M841.864 325.175H790.17C789.52 325.175 789 325.695 789 326.345V333.626C789 334.276 789.52 334.796 790.17 334.796H841.864C842.514 334.796 843.034 334.276 843.034 333.626V326.345C843.034 325.695 842.514 325.175 841.864 325.175ZM840.693 332.456H791.405V327.58H840.693V332.456Z" fill="#74A2B4"/>
<path d="M841.864 340.777H790.17C789.52 340.777 789 341.297 789 341.947V349.229C789 349.879 789.52 350.399 790.17 350.399H841.864C842.514 350.399 843.034 349.879 843.034 349.229V341.947C843.034 341.297 842.514 340.777 841.864 340.777ZM840.693 348.058H791.405V343.183H840.693V348.058Z" fill="#74A2B4"/>
<path d="M1011.19 431.659H755.967C755.317 431.659 754.797 432.179 754.797 432.829C754.797 433.479 755.317 434 755.967 434H1011.19C1011.84 434 1012.36 433.479 1012.36 432.829C1012.36 432.179 1011.9 431.659 1011.19 431.659Z" fill="#74A2B4"/>
<path d="M741.337 431.659H605.957C605.307 431.659 604.787 432.179 604.787 432.829C604.787 433.479 605.307 434 605.957 434H741.337C741.987 434 742.507 433.479 742.507 432.829C742.507 432.179 741.987 431.659 741.337 431.659Z" fill="#74A2B4"/>
<path d="M1402.43 431.659H1139.41C1138.76 431.659 1138.24 432.179 1138.24 432.829C1138.24 433.479 1138.76 434 1139.41 434H1402.43C1403.08 434 1403.6 433.479 1403.6 432.829C1403.6 432.179 1403.08 431.659 1402.43 431.659Z" fill="#74A2B4"/>
<path d="M1127.45 431.659H1062.49C1061.84 431.659 1061.32 432.179 1061.32 432.829C1061.32 433.479 1061.84 434 1062.49 434H1127.45C1128.1 434 1128.62 433.479 1128.62 432.829C1128.62 432.179 1128.1 431.659 1127.45 431.659Z" fill="#74A2B4"/>
<path d="M909.164 346.368H857.34C856.689 346.368 856.169 346.888 856.169 347.538V370.421C856.169 371.072 856.689 371.592 857.34 371.592H909.164C909.814 371.592 910.334 371.072 910.334 370.421V347.538C910.334 346.888 909.814 346.368 909.164 346.368ZM907.928 369.251H858.445V348.774H907.928V369.251Z" fill="#74A2B4"/>
<path d="M1166.72 338.632H1166.79C1216.08 334.601 1249.69 327.97 1251.71 327.58H1253.98C1254.37 328.36 1255.16 328.945 1256.13 328.945C1257.11 328.945 1257.89 328.36 1258.28 327.58H1265.62L1264.91 332.131H1258.21C1257.82 331.351 1257.04 330.765 1256.07 330.765C1255.09 330.765 1254.31 331.351 1253.92 332.131H1251.58C1251.51 332.131 1251.45 332.131 1251.38 332.131C1250.99 332.196 1221.6 338.111 1177.06 342.272C1176.54 342.337 1176.15 342.792 1176.15 343.312C1176.22 343.832 1176.61 344.222 1177.13 344.222H1177.19C1220.69 340.192 1249.76 334.471 1251.64 334.081H1253.92C1254.31 334.861 1255.09 335.446 1256.07 335.446C1257.04 335.446 1257.82 334.861 1258.21 334.081H1264.52L1261.66 351.893C1261.59 352.088 1261.53 352.283 1261.59 352.478L1250.8 419.243C1250.73 419.763 1251.06 420.283 1251.58 420.348C1252.1 420.413 1252.62 420.088 1252.68 419.568L1256.98 393.044L1270.24 380.627L1283.51 393.044L1287.8 419.503C1287.86 419.958 1288.32 420.348 1288.77 420.348C1288.84 420.348 1288.9 420.348 1288.9 420.348C1289.42 420.283 1289.81 419.763 1289.68 419.243L1275.96 334.146H1283.18C1283.57 334.926 1284.35 335.511 1285.33 335.511C1286.3 335.511 1287.08 334.926 1287.47 334.146H1288.77C1290.85 334.796 1314.72 342.272 1339.17 342.272H1341.51C1341.9 343.052 1342.68 343.637 1343.65 343.637C1344.63 343.637 1345.41 343.052 1345.8 342.272H1352.04L1339.62 418.203C1339.56 418.723 1339.88 419.243 1340.4 419.308C1340.92 419.373 1341.44 419.048 1341.51 418.528L1344.3 401.43L1357.7 388.818L1370.96 401.235L1373.89 419.308C1373.95 419.763 1374.41 420.153 1374.86 420.153C1374.93 420.153 1374.99 420.153 1374.99 420.153C1375.51 420.088 1375.9 419.568 1375.77 419.048L1363.42 342.337H1370.64C1371.03 343.117 1371.81 343.702 1372.78 343.702C1373.76 343.702 1374.54 343.117 1374.93 342.337H1376.36C1376.88 342.337 1377.33 341.882 1377.33 341.362C1377.33 340.842 1376.88 340.387 1376.36 340.387H1374.93C1374.54 339.607 1373.76 339.022 1372.78 339.022C1371.81 339.022 1371.03 339.607 1370.64 340.387H1363.09L1362.38 335.836H1370.7C1371.09 336.616 1371.87 337.201 1372.85 337.201C1373.82 337.201 1374.6 336.616 1374.99 335.836H1376.42C1376.94 335.836 1377.4 335.381 1377.4 334.861C1377.4 334.341 1376.94 333.886 1376.42 333.886H1374.99C1374.6 333.106 1373.82 332.521 1372.85 332.521C1371.87 332.521 1371.09 333.106 1370.7 333.886H1362.12L1359.58 318.024C1359.45 317.114 1358.67 316.528 1357.83 316.528C1356.92 316.528 1356.2 317.179 1356.07 318.024L1353.47 333.886H1345.8C1345.41 333.106 1344.63 332.521 1343.65 332.521C1342.68 332.521 1341.9 333.106 1341.51 333.886H1339.17C1314.07 333.886 1289.49 325.89 1289.29 325.76H1289.23C1289.16 325.76 1289.16 325.76 1289.1 325.76C1289.03 325.76 1289.03 325.76 1289.03 325.76H1288.97H1287.54C1287.15 324.98 1286.37 324.395 1285.39 324.395C1284.42 324.395 1283.64 324.98 1283.25 325.76H1274.66L1272.13 309.898C1272 308.987 1271.22 308.402 1270.37 308.402C1269.53 308.402 1268.75 309.052 1268.62 309.898L1266.08 325.76H1258.21C1257.82 324.98 1257.04 324.395 1256.07 324.395C1255.09 324.395 1254.31 324.98 1253.92 325.76H1251.58C1251.51 325.76 1251.45 325.76 1251.38 325.76C1250.93 325.825 1216.99 332.716 1166.59 336.811C1166.07 336.876 1165.68 337.331 1165.68 337.851C1165.75 338.241 1166.2 338.632 1166.72 338.632ZM1276.35 349.033L1271.54 343.312L1274.79 339.542L1276.35 349.033ZM1265.62 339.282L1269.01 343.312L1264.06 348.968L1265.62 339.282ZM1271.93 334.081L1274.21 337.331L1270.31 341.817L1266.53 337.331L1268.75 334.081H1271.93ZM1270.05 332.131L1270.31 331.806L1270.57 332.131H1270.05ZM1270.31 344.807L1276.55 352.283L1270.24 358.264L1263.87 352.218L1270.31 344.807ZM1268.81 359.629L1261.2 366.845L1263.22 354.364L1268.81 359.629ZM1270.24 360.93L1279.21 369.446L1270.18 377.897L1261.2 369.446L1270.24 360.93ZM1271.67 359.629L1277.26 354.364L1279.28 366.78L1271.67 359.629ZM1272.91 332.131L1271.41 330.05L1272.91 327.905L1273.62 332.131H1272.91ZM1270.24 328.36L1269.72 327.58H1270.76L1270.24 328.36ZM1267.51 327.775L1269.14 330.05L1267.77 332.131H1266.86L1267.51 327.775ZM1257.5 389.859L1260.49 371.461L1268.81 379.262L1257.5 389.859ZM1271.61 379.262L1279.93 371.461L1282.92 389.924L1271.61 379.262ZM1356.59 338.176L1355.23 340.257H1354.32L1355.03 335.901L1356.59 338.176ZM1357.24 335.706H1358.28L1357.76 336.486L1357.24 335.706ZM1363.81 357.159L1359 351.438L1362.25 347.668L1363.81 357.159ZM1353.08 347.408L1356.53 351.503L1351.52 357.289L1353.08 347.408ZM1357.76 352.999L1364 360.475L1357.7 366.455L1351.33 360.41L1357.76 352.999ZM1350.61 362.36L1356.27 367.691L1348.53 374.972L1350.61 362.36ZM1357.7 369.121L1366.67 377.637L1357.63 386.088L1348.66 377.637L1357.7 369.121ZM1359.13 367.756L1364.72 362.49L1366.74 374.907L1359.13 367.756ZM1361.73 345.457L1357.83 349.943L1354.06 345.457L1356.27 342.207H1359.45L1361.73 345.457ZM1357.57 340.257L1357.83 339.932L1358.09 340.257H1357.57ZM1344.76 398.18L1347.81 379.522L1356.27 387.453L1344.76 398.18ZM1359.13 387.388L1367.45 379.587L1370.44 398.05L1359.13 387.388ZM1360.43 340.257L1358.93 338.176L1360.43 336.031L1361.14 340.257H1360.43ZM1357.7 319.064L1359.97 333.171L1359.58 333.756H1355.81L1355.36 333.171L1357.7 319.064ZM1283.18 327.58C1283.57 328.36 1284.35 328.945 1285.33 328.945C1286.3 328.945 1287.08 328.36 1287.47 327.58H1288.77C1290.85 328.23 1314.72 335.706 1339.17 335.706H1341.51C1341.9 336.486 1342.68 337.071 1343.65 337.071C1344.63 337.071 1345.41 336.486 1345.8 335.706H1353.15L1352.43 340.257H1345.86C1345.47 339.477 1344.69 338.892 1343.72 338.892C1342.74 338.892 1341.96 339.477 1341.57 340.257H1339.23C1314.13 340.257 1289.55 332.261 1289.36 332.131H1289.29C1289.23 332.131 1289.23 332.131 1289.16 332.131C1289.1 332.131 1289.1 332.131 1289.1 332.131H1289.03H1287.6C1287.21 331.351 1286.43 330.765 1285.46 330.765C1284.48 330.765 1283.7 331.351 1283.31 332.131H1275.77L1275.05 327.58H1283.18ZM1270.24 310.938L1272.52 325.045L1272.13 325.63H1268.35L1267.96 325.045L1270.24 310.938Z" fill="#74A2B4"/>
<path d="M238.507 202.503C238.833 202.048 238.768 201.463 238.312 201.138C237.857 200.813 237.272 200.878 236.947 201.333C235.711 202.893 234.021 204.128 232.07 204.648C231.745 204.713 231.485 204.973 231.42 205.363C231.355 205.753 231.42 206.078 231.68 206.273C232.655 207.249 233.241 208.614 233.241 209.979C233.241 211.734 232.395 213.359 230.9 214.4C230.445 214.725 230.314 215.31 230.64 215.765C230.835 216.025 231.16 216.22 231.42 216.22C231.615 216.22 231.81 216.155 231.94 216.025C233.956 214.66 235.126 212.449 235.126 210.044C235.126 208.614 234.736 207.249 233.956 206.078C235.776 205.233 237.337 203.998 238.507 202.503Z" fill="#74A2B4"/>
<path d="M178.621 199.188C179.206 199.188 179.856 199.188 180.506 199.123C183.237 207.444 191.04 213.165 199.883 213.165C203.915 213.165 207.816 211.995 211.132 209.784C212.238 210.889 213.473 211.735 214.904 212.32C214.579 213.165 214.384 214.075 214.384 214.985C214.384 215.505 214.839 215.96 215.359 215.96C215.879 215.96 216.334 215.505 216.334 214.985C216.334 214.01 216.594 213.1 217.115 212.255C217.245 211.995 217.31 211.67 217.18 211.409C217.05 211.149 216.855 210.889 216.529 210.824C214.774 210.304 213.213 209.264 211.978 207.834C211.653 207.444 211.067 207.379 210.677 207.639C207.491 209.979 203.785 211.149 199.818 211.149C191.625 211.149 184.343 205.624 182.132 197.758C182.002 197.303 181.547 196.978 181.091 197.043C180.246 197.173 179.401 197.238 178.621 197.238C168.477 197.238 160.219 188.981 160.219 178.84C160.219 168.699 168.477 160.442 178.621 160.442C180.181 160.442 181.677 160.637 183.172 161.028C183.692 161.158 184.213 160.833 184.343 160.312C184.473 159.792 184.148 159.272 183.627 159.142C182.002 158.752 180.311 158.492 178.621 158.492C167.371 158.492 158.268 167.593 158.268 178.84C158.268 190.087 167.371 199.188 178.621 199.188Z" fill="#74A2B4"/>
<path d="M327.33 404.031H322.063C321.543 404.031 321.088 404.486 321.088 405.006V427.565C321.088 428.085 321.543 428.54 322.063 428.54H327.33C327.85 428.54 328.305 428.085 328.305 427.565V405.006C328.305 404.421 327.85 404.031 327.33 404.031ZM326.355 426.524H323.038V405.917H326.355V426.524Z" fill="#74A2B4"/>
<path d="M360.362 415.407H359.972V401.105C359.972 400.585 359.517 400.13 358.997 400.13H338.254C337.734 400.13 337.279 400.585 337.279 401.105V415.407H336.888C336.368 415.407 335.913 415.862 335.913 416.382V420.153C335.913 420.673 336.368 421.128 336.888 421.128H360.362C360.882 421.128 361.337 420.673 361.337 420.153V416.382C361.337 415.862 360.882 415.407 360.362 415.407ZM358.021 402.08V406.046H339.229V402.08H358.021ZM339.229 407.996H358.021V415.407H339.229V407.996ZM359.387 419.113H337.864V417.292H338.254H358.997H359.387V419.113Z" fill="#74A2B4"/>
<path d="M393.459 415.407H393.069V401.105C393.069 400.585 392.614 400.13 392.093 400.13H371.351C370.831 400.13 370.375 400.585 370.375 401.105V415.407H369.985C369.465 415.407 369.01 415.862 369.01 416.382V420.153C369.01 420.673 369.465 421.128 369.985 421.128H393.459C393.979 421.128 394.434 420.673 394.434 420.153V416.382C394.434 415.862 394.044 415.407 393.459 415.407ZM391.183 402.08V406.046H372.391V402.08H391.183ZM372.326 407.996H391.118V415.407H372.326V407.996ZM392.484 419.113H370.961V417.292H371.351H392.093H392.484V419.113Z" fill="#74A2B4"/>
<path d="M329.801 349.098H340.92C341.44 349.098 341.895 348.643 341.895 348.123V344.743C341.895 344.223 341.44 343.768 340.92 343.768H329.801C329.281 343.768 328.825 344.223 328.825 344.743V348.123C328.825 348.643 329.281 349.098 329.801 349.098ZM330.776 345.718H339.944V347.148H330.776V345.718Z" fill="#74A2B4"/>
<path d="M329.801 356.184H340.92C341.44 356.184 341.895 355.729 341.895 355.209V351.829C341.895 351.309 341.44 350.854 340.92 350.854H329.801C329.281 350.854 328.825 351.309 328.825 351.829V355.209C328.825 355.794 329.281 356.184 329.801 356.184ZM330.776 352.869H339.944V354.299H330.776V352.869Z" fill="#74A2B4"/>
<path d="M345.537 349.098H356.656C357.176 349.098 357.631 348.643 357.631 348.123V344.743C357.631 344.223 357.176 343.768 356.656 343.768H345.537C345.016 343.768 344.561 344.223 344.561 344.743V348.123C344.561 348.643 345.016 349.098 345.537 349.098ZM346.512 345.718H355.68V347.148H346.512V345.718Z" fill="#74A2B4"/>
<path d="M345.537 356.184H356.656C357.176 356.184 357.631 355.729 357.631 355.209V351.829C357.631 351.309 357.176 350.854 356.656 350.854H345.537C345.016 350.854 344.561 351.309 344.561 351.829V355.209C344.561 355.794 345.016 356.184 345.537 356.184ZM346.512 352.869H355.68V354.299H346.512V352.869Z" fill="#74A2B4"/>
<path d="M372.977 349.098H384.096C384.616 349.098 385.071 348.643 385.071 348.123V344.743C385.071 344.223 384.616 343.768 384.096 343.768H372.977C372.457 343.768 372.001 344.223 372.001 344.743V348.123C372.001 348.643 372.457 349.098 372.977 349.098ZM373.952 345.718H383.121V347.148H373.952V345.718Z" fill="#74A2B4"/>
<path d="M372.977 356.184H384.096C384.616 356.184 385.071 355.729 385.071 355.209V351.829C385.071 351.309 384.616 350.854 384.096 350.854H372.977C372.457 350.854 372.001 351.309 372.001 351.829V355.209C372.001 355.794 372.457 356.184 372.977 356.184ZM373.952 352.869H383.121V354.299H373.952V352.869Z" fill="#74A2B4"/>
<path d="M388.647 349.098H399.767C400.287 349.098 400.742 348.643 400.742 348.123V344.743C400.742 344.223 400.287 343.768 399.767 343.768H388.647C388.127 343.768 387.672 344.223 387.672 344.743V348.123C387.672 348.643 388.127 349.098 388.647 349.098ZM389.623 345.718H398.791V347.148H389.623V345.718Z" fill="#74A2B4"/>
<path d="M388.647 356.184H399.767C400.287 356.184 400.742 355.729 400.742 355.209V351.829C400.742 351.309 400.287 350.854 399.767 350.854H388.647C388.127 350.854 387.672 351.309 387.672 351.829V355.209C387.672 355.794 388.127 356.184 388.647 356.184ZM389.623 352.869H398.791V354.299H389.623V352.869Z" fill="#74A2B4"/>
<path d="M424.085 349.098H435.205C435.725 349.098 436.18 348.643 436.18 348.123V344.743C436.18 344.223 435.725 343.768 435.205 343.768H424.085C423.565 343.768 423.11 344.223 423.11 344.743V348.123C423.11 348.643 423.5 349.098 424.085 349.098ZM425.061 345.718H434.229V347.148H425.061V345.718Z" fill="#74A2B4"/>
<path d="M424.085 356.184H435.205C435.725 356.184 436.18 355.729 436.18 355.209V351.829C436.18 351.309 435.725 350.854 435.205 350.854H424.085C423.565 350.854 423.11 351.309 423.11 351.829V355.209C423.11 355.794 423.5 356.184 424.085 356.184ZM425.061 352.869H434.229V354.299H425.061V352.869Z" fill="#74A2B4"/>
<path d="M439.756 349.098H450.875C451.395 349.098 451.851 348.643 451.851 348.123V344.743C451.851 344.223 451.395 343.768 450.875 343.768H439.756C439.236 343.768 438.781 344.223 438.781 344.743V348.123C438.781 348.643 439.236 349.098 439.756 349.098ZM440.731 345.718H449.9V347.148H440.731V345.718Z" fill="#74A2B4"/>
<path d="M439.756 356.184H450.875C451.395 356.184 451.851 355.729 451.851 355.209V351.829C451.851 351.309 451.395 350.854 450.875 350.854H439.756C439.236 350.854 438.781 351.309 438.781 351.829V355.209C438.781 355.794 439.236 356.184 439.756 356.184ZM440.731 352.869H449.9V354.299H440.731V352.869Z" fill="#74A2B4"/>
<path d="M477.86 350.139C477.47 350.464 477.405 351.114 477.73 351.504C481.306 355.86 483.257 361.385 483.257 366.976C483.257 367.496 483.712 367.951 484.233 367.951C484.753 367.951 485.208 367.496 485.208 366.976C485.208 360.93 483.127 354.949 479.291 350.269C478.901 349.879 478.315 349.814 477.86 350.139Z" fill="#74A2B4"/>
<path d="M471.423 343.702C470.968 343.442 470.382 343.637 470.122 344.092C469.862 344.548 470.057 345.133 470.512 345.393C472.008 346.238 473.439 347.213 474.739 348.318C474.934 348.448 475.129 348.578 475.389 348.578C475.649 348.578 475.909 348.448 476.105 348.253C476.43 347.863 476.43 347.213 475.975 346.888C474.544 345.653 472.983 344.613 471.423 343.702Z" fill="#74A2B4"/>
<path d="M209.572 406.306C212.498 406.306 214.904 403.901 214.904 400.975C214.904 398.05 212.498 395.645 209.572 395.645C206.646 395.645 204.24 398.05 204.24 400.975C204.24 403.901 206.646 406.306 209.572 406.306ZM209.572 397.595C211.458 397.595 212.953 399.09 212.953 400.975C212.953 402.86 211.458 404.356 209.572 404.356C207.686 404.356 206.191 402.86 206.191 400.975C206.191 399.155 207.686 397.595 209.572 397.595Z" fill="#74A2B4"/>
<path d="M226.543 406.306C229.469 406.306 231.875 403.901 231.875 400.975C231.875 398.05 229.469 395.645 226.543 395.645C223.617 395.645 221.211 398.05 221.211 400.975C221.276 403.901 223.617 406.306 226.543 406.306ZM226.543 397.595C228.429 397.595 229.924 399.09 229.924 400.975C229.924 402.86 228.429 404.356 226.543 404.356C224.657 404.356 223.162 402.86 223.162 400.975C223.227 399.155 224.722 397.595 226.543 397.595Z" fill="#74A2B4"/>
<path d="M242.669 406.306C245.595 406.306 248.001 403.901 248.001 400.975C248.001 398.05 245.595 395.645 242.669 395.645C239.743 395.645 237.337 398.05 237.337 400.975C237.337 403.901 239.743 406.306 242.669 406.306ZM242.669 397.595C244.555 397.595 246.05 399.09 246.05 400.975C246.05 402.86 244.555 404.356 242.669 404.356C240.783 404.356 239.288 402.86 239.288 400.975C239.288 399.155 240.783 397.595 242.669 397.595Z" fill="#74A2B4"/>
<path d="M259.185 406.306C262.111 406.306 264.517 403.901 264.517 400.975C264.517 398.05 262.111 395.645 259.185 395.645C256.259 395.645 253.853 398.05 253.853 400.975C253.853 403.901 256.259 406.306 259.185 406.306ZM259.185 397.595C261.071 397.595 262.566 399.09 262.566 400.975C262.566 402.86 261.071 404.356 259.185 404.356C257.299 404.356 255.804 402.86 255.804 400.975C255.804 399.155 257.299 397.595 259.185 397.595Z" fill="#74A2B4"/>
<path d="M308.798 163.497C307.368 166.878 306.587 170.388 306.587 174.094C306.587 188.851 318.617 200.878 333.377 200.878C336.953 200.878 340.4 200.163 343.716 198.797C348.723 206.338 356.981 210.759 366.084 210.759C376.163 210.759 385.396 205.038 389.948 196.132C392.419 197.302 395.15 197.887 397.881 197.887C400.612 197.887 403.213 197.302 405.619 196.197C407.114 198.667 409.39 200.553 412.056 201.593C411.666 202.503 411.406 203.478 411.211 204.518C411.081 205.038 411.471 205.558 411.991 205.688C412.511 205.818 413.031 205.428 413.161 204.908C413.422 203.738 413.812 202.568 414.332 201.463C414.462 201.203 414.462 200.878 414.332 200.618C414.202 200.358 414.007 200.163 413.682 200.098C410.756 199.317 408.285 197.302 406.984 194.572C406.854 194.312 406.659 194.182 406.399 194.052C406.139 193.987 405.879 193.987 405.619 194.117C403.213 195.352 400.612 196.002 397.881 196.002C395.15 196.002 392.419 195.352 389.948 194.052C389.688 193.922 389.428 193.922 389.168 193.987C388.908 194.052 388.712 194.247 388.582 194.507C384.486 203.218 375.643 208.874 366.019 208.874C357.371 208.874 349.438 204.453 344.886 197.107C344.626 196.717 344.106 196.522 343.651 196.717C340.4 198.212 336.953 198.927 333.377 198.927C319.657 198.927 308.538 187.746 308.538 174.094C308.538 170.388 309.318 166.748 310.944 163.432C311.074 163.172 311.074 162.912 310.944 162.652C310.879 162.392 310.684 162.197 310.424 162.132C301.06 158.167 295.013 149 295.013 138.859C295.013 124.882 306.392 113.571 320.307 113.571C321.543 113.571 322.778 113.636 324.014 113.831C324.339 113.896 324.664 113.766 324.924 113.506C332.402 104.859 343.326 99.8537 354.705 99.8537C356.721 99.8537 358.801 99.9837 360.817 100.309C361.142 100.374 361.532 100.244 361.728 99.9837C369.27 90.6224 380.454 85.2917 392.484 85.2917C408.675 85.2917 423.045 94.978 429.092 109.995C429.222 110.385 429.612 110.645 430.068 110.58C430.783 110.515 431.433 110.515 432.018 110.515C445.738 110.515 456.857 121.697 456.857 135.349C456.857 136.779 456.727 138.209 456.467 139.639C456.402 140.159 456.727 140.614 457.248 140.744C465.506 142.565 471.423 149.781 471.683 158.232C471.683 158.687 472.073 159.077 472.528 159.142C477.665 159.922 481.501 164.408 481.501 169.608C481.501 173.509 479.356 177.084 475.909 178.905C475.649 179.035 475.519 179.23 475.454 179.49C475.389 179.75 475.454 180.01 475.584 180.27C476.69 181.96 477.275 183.975 477.275 185.991C477.275 190.151 474.804 193.922 471.033 195.612C470.773 195.742 470.577 195.937 470.512 196.197C470.447 196.457 470.447 196.717 470.577 196.977C471.423 198.797 471.943 200.748 472.008 202.763C472.008 203.283 472.463 203.738 473.048 203.673C473.569 203.673 474.024 203.218 473.959 202.633C473.894 200.683 473.438 198.797 472.723 196.977C476.755 194.767 479.291 190.606 479.291 185.991C479.291 183.91 478.77 181.895 477.795 180.075C481.371 177.799 483.517 173.834 483.517 169.543C483.517 163.693 479.356 158.557 473.634 157.322C473.048 148.61 467.066 141.264 458.613 138.989C458.808 137.754 458.873 136.519 458.873 135.284C458.873 120.527 446.844 108.5 432.083 108.5C431.628 108.5 431.173 108.5 430.653 108.565C424.15 93.2227 409.26 83.2764 392.549 83.2764C380.129 83.2764 368.555 88.7371 360.687 98.2934C358.736 98.0334 356.786 97.9034 354.835 97.9034C343.001 97.9034 331.752 102.974 323.884 111.815C322.713 111.685 321.608 111.62 320.437 111.62C305.417 111.62 293.192 123.842 293.192 138.859C293.127 149.391 299.24 159.012 308.798 163.497Z" fill="#74A2B4"/>
<path d="M177.645 179.36C177.645 191.776 187.789 201.918 200.208 201.918C207.881 201.918 214.969 198.017 219.13 191.711C221.406 196.327 226.153 199.317 231.42 199.317C233.631 199.317 235.776 198.797 237.727 197.757C241.563 201.073 246.44 202.958 251.577 202.958C253.788 202.958 255.934 202.633 258.014 201.983C260.485 203.868 263.476 204.843 266.598 204.843C268.483 204.843 270.304 204.453 272.06 203.738C274.27 205.883 277.522 206.728 280.578 205.948C281.748 207.053 283.244 207.833 284.804 208.224C284.869 208.224 284.999 208.289 285.064 208.289C285.52 208.289 285.91 208.028 285.975 207.573C286.105 207.053 285.78 206.533 285.259 206.403C283.829 206.013 282.528 205.233 281.488 204.193C281.228 203.933 280.838 203.803 280.448 203.933C277.782 204.843 274.791 203.998 272.97 201.983C272.71 201.658 272.19 201.593 271.8 201.723C270.109 202.503 268.353 202.893 266.533 202.893C263.672 202.893 261.006 201.918 258.73 200.162C258.47 199.967 258.145 199.902 257.819 200.032C255.804 200.747 253.658 201.073 251.577 201.073C246.7 201.073 242.084 199.252 238.507 195.937C238.182 195.677 237.727 195.612 237.337 195.807C235.516 196.847 233.435 197.432 231.355 197.432C226.218 197.432 221.731 194.182 220.106 189.306C219.976 188.916 219.65 188.656 219.26 188.656C218.87 188.591 218.48 188.851 218.285 189.176C214.709 195.937 207.751 200.097 200.078 200.097C188.699 200.097 179.466 190.866 179.466 179.49C179.466 172.209 183.237 165.578 189.479 161.807C189.804 161.612 190 161.222 189.935 160.897C189.804 159.922 189.804 159.012 189.804 158.037C189.804 143.345 201.769 131.383 216.464 131.383C224.917 131.383 232.655 135.218 237.727 141.979C237.857 142.174 238.117 142.304 238.377 142.369C238.637 142.369 238.897 142.304 239.093 142.174C242.539 139.249 246.895 137.689 251.447 137.689C260.745 137.689 268.678 144.32 270.304 153.486C270.369 153.941 270.759 154.266 271.214 154.266C276.221 154.591 280.123 158.752 280.123 163.692C280.123 164.667 279.993 165.643 279.667 166.618C279.602 166.878 279.602 167.203 279.797 167.463C279.993 167.723 280.253 167.853 280.578 167.853C287.925 168.178 293.648 174.159 293.648 181.505C293.648 184.43 292.672 187.291 290.917 189.696C290.721 189.891 290.656 190.216 290.721 190.476C290.786 190.736 290.982 190.996 291.242 191.126C293.908 192.556 295.598 195.352 295.598 198.407C295.598 200.682 294.623 202.893 292.932 204.453C292.542 204.843 292.477 205.428 292.867 205.818C293.257 206.208 293.843 206.273 294.233 205.883C296.314 203.933 297.549 201.203 297.549 198.407C297.549 195.027 295.858 191.841 293.127 189.956C294.753 187.421 295.663 184.495 295.663 181.505C295.663 173.574 289.746 166.943 281.943 166.033C282.138 165.253 282.203 164.472 282.203 163.692C282.203 157.907 277.912 153.096 272.255 152.381C270.174 142.694 261.591 135.738 251.642 135.738C247.025 135.738 242.539 137.234 238.832 140.029C233.37 133.268 225.307 129.433 216.659 129.433C200.924 129.433 188.049 142.239 188.049 158.037C188.049 158.817 188.114 159.662 188.179 160.442C181.481 164.537 177.645 171.558 177.645 179.36Z" fill="#74A2B4"/>
<path d="M568.763 431.789H555.173C510.177 320.169 496.197 245.734 492.23 218.885L491.97 218.95C492.1 218.755 492.165 218.56 492.165 218.365V208.093C492.165 207.573 491.71 207.118 491.19 207.118H399.832C399.311 207.118 398.856 207.573 398.856 208.093V218.365C398.856 218.495 398.921 218.69 398.986 218.82L398.401 218.755C396.32 232.277 390.858 261.856 377.853 308.012L365.954 313.668V303.657V298.261C365.954 298.196 365.954 298.131 365.954 298.066C365.954 298.001 365.889 297.871 365.824 297.806C365.759 297.741 365.694 297.676 365.629 297.611C365.629 297.611 365.629 297.611 365.564 297.546C365.499 297.481 365.434 297.416 365.304 297.416C365.304 297.416 365.304 297.416 365.239 297.416C365.174 297.416 365.044 297.351 364.914 297.351H354.38C354.315 297.351 354.25 297.351 354.185 297.351C354.12 297.351 354.12 297.351 354.055 297.416C353.99 297.416 353.99 297.416 353.925 297.481H353.86L307.953 319.389L307.563 311.393L307.368 307.752L304.181 242.093L304.116 240.728L303.206 222.395H307.303C307.823 222.395 308.278 221.94 308.278 221.42V210.174C308.278 209.654 307.823 209.198 307.303 209.198H274.531C274.01 209.198 273.555 209.654 273.555 210.174V221.42C273.555 221.94 274.01 222.395 274.531 222.395H277.197L276.416 240.728L276.351 242.223L275.246 269.202L274.986 275.638L273.815 303.266C271.149 289.81 269.069 278.238 269.069 278.108C269.004 277.653 268.548 277.328 268.093 277.328H237.857V257.24H238.442C238.963 257.24 239.418 256.785 239.418 256.265C239.418 255.745 238.963 255.29 238.442 255.29H237.857V233.447H238.442C238.963 233.447 239.418 232.992 239.418 232.472C239.418 231.952 238.963 231.497 238.442 231.497H236.882H235.191V226.426H237.337C237.857 226.426 238.312 225.971 238.312 225.451V217.78C238.312 217.26 237.857 216.804 237.337 216.804H211.392C210.872 216.804 210.417 217.26 210.417 217.78V225.451C210.417 225.971 210.872 226.426 211.392 226.426H213.538V231.497H211.392C210.872 231.497 210.417 231.952 210.417 232.472C210.417 232.992 210.872 233.447 211.392 233.447H213.538V255.29H211.392C210.872 255.29 210.417 255.745 210.417 256.265C210.417 256.785 210.872 257.24 211.392 257.24H213.538V277.068H206.581C206.061 277.068 205.67 277.458 205.605 277.913C205.605 278.043 204.175 291.37 198.128 316.983C192.536 340.517 181.872 379.587 162.365 431.789H102.282C101.762 431.789 101.307 432.244 101.307 432.764C101.307 433.284 101.762 433.739 102.282 433.739H568.763C569.284 433.739 569.739 433.284 569.739 432.764C569.739 432.244 569.349 431.789 568.763 431.789ZM231.745 296.896H235.971V364.375H231.745V296.896ZM229.794 296.896V364.375H215.489V296.896H229.794ZM230.77 366.325H236.947H267.248H268.483V375.231H200.078V366.325H230.77ZM299.89 366.325V385.958H270.369V376.272V366.39H299.89V366.325ZM302.881 253.34H277.977L278.497 241.573H302.361L302.881 253.34ZM303.011 255.29L303.661 268.097H277.392L277.912 255.29H303.011ZM318.097 321.469C318.227 321.469 318.357 321.404 318.487 321.404L363.873 299.691V302.941L317.706 324.719C317.576 324.784 317.446 324.914 317.381 324.979H308.473V321.534H318.097V321.469ZM447.689 299.106H453.671L421.875 314.513L412.706 318.934V315.683L447.689 299.106ZM270.434 421.648V411.051V387.908H299.955V431.464H270.434V421.648ZM274.401 338.111L274.856 326.865H306.652V338.631H274.336L274.401 338.111ZM308.603 326.93H317.121V364.375H308.603V326.93ZM301.841 431.464V387.908H317.121V401.105V431.464H312.635H301.841ZM332.077 431.464V401.105C332.077 400.585 331.622 400.13 331.101 400.13H319.072V387.908H398.271V431.464H332.077ZM319.072 402.08H330.126V431.464H319.072V402.08ZM398.271 385.958H319.072V366.39H398.271V385.958ZM312.635 366.325H317.121V385.958H301.841V366.39H312.635V366.325ZM446.909 431.529V393.564H447.689H488.524V431.529H446.909ZM446.714 391.549H434.164V384.658H446.714V391.549ZM436.115 393.564H442.682H444.958V431.009H436.115V393.564ZM498.603 431.529H490.41V393.564H498.603V431.529ZM499.578 391.614H448.664V384.658H501.659V391.614H499.578ZM488.524 382.642H447.689C447.624 382.642 447.559 382.642 447.494 382.642H433.254C432.734 382.642 432.278 383.098 432.278 383.618V392.459C432.278 392.979 432.734 393.434 433.254 393.434H434.229V431.464H401.132V386.868V373.151H470.773H476.885H481.111H487.224H488.589V382.642H488.524ZM422.525 316.333L456.987 299.756V302.876L412.706 324.329V321.079L422.525 316.333ZM475.844 371.266H471.683V365.22C471.683 359.174 468.367 353.778 463.295 350.983C470.317 351.893 475.844 357.939 475.844 365.22V371.266ZM459.198 351.373C465.376 353.063 469.797 358.719 469.797 365.22V371.266H459.198V351.373ZM486.183 371.266H481.046H477.795V365.22C477.795 356.249 470.447 348.903 461.474 348.903H459.198V340.582H461.474C475.064 340.582 486.118 351.633 486.118 365.22V371.266H486.183ZM410.105 299.756V302.876L401.912 306.842L365.889 323.809V321.079L375.708 316.333L410.105 299.756ZM363.938 315.098V320.494V325.37V325.89C363.938 326.215 364.133 326.54 364.394 326.735C364.524 326.865 364.719 326.865 364.914 326.865C365.044 326.865 365.174 326.865 365.369 326.735L402.823 308.597L410.43 305.022V325.5C410.43 325.825 410.626 326.15 410.886 326.345C410.951 326.475 411.081 326.605 411.211 326.735C411.341 326.865 411.536 326.865 411.731 326.865C411.861 326.865 411.991 326.865 412.186 326.735L412.771 326.475H412.836C412.966 326.475 413.161 326.41 413.291 326.345L457.378 304.957V339.346C457.378 339.411 457.378 339.411 457.378 339.476V349.748C457.378 349.813 457.378 349.813 457.378 349.878V371.136H401.262V365.22C401.262 364.7 400.807 364.245 400.287 364.245H399.702C399.637 364.245 399.506 364.18 399.376 364.18H319.072V326.41L363.873 304.957V315.098H363.938ZM306.392 324.979H274.921L275.441 312.173H305.742L306.392 324.979ZM305.612 309.182L305.677 310.222H275.571L276.091 298.456H305.157L305.612 309.182ZM305.027 296.506H276.156L276.676 283.699H304.377L305.027 296.506ZM277.262 269.982H303.726L304.312 281.748H276.806L277.132 274.467L277.262 269.982ZM274.271 340.647H306.652V364.375H300.865C300.735 364.375 300.67 364.375 300.54 364.44H273.23L274.271 340.647ZM268.483 377.247V385.893H197.672C195.267 385.893 193.381 383.943 193.381 381.602C193.381 379.262 195.332 377.312 197.672 377.312H268.483V377.247ZM268.483 387.843V410.076H200.078V387.843H268.483ZM268.483 412.026V420.673H197.672C195.267 420.673 193.381 418.722 193.381 416.382C193.381 413.977 195.332 412.092 197.672 412.092H268.483V412.026ZM268.483 422.623V431.464H228.754H200.078V422.688H268.483V422.623ZM553.028 431.594H500.618V393.564H502.699C503.219 393.564 503.675 393.109 503.675 392.589V383.683C503.675 383.163 503.219 382.707 502.699 382.707H490.475V372.306C490.475 371.786 490.02 371.331 489.499 371.331H488.134V365.285C488.134 350.593 476.17 338.696 461.539 338.696H459.263V303.591C459.263 303.331 459.133 303.071 458.938 302.876V298.196V298.131C458.938 298.066 458.938 298.001 458.938 297.936C458.808 297.481 458.418 297.156 457.963 297.156H447.494C447.364 297.156 447.234 297.156 447.104 297.221L418.884 310.547C424.216 264.976 426.621 234.227 427.597 219.21H490.28C494.311 246.254 508.291 320.494 553.028 431.594ZM490.28 217.325H427.792C428.117 212.709 428.247 209.979 428.247 209.003H490.28V217.325ZM400.807 209.003H426.296C426.231 209.979 426.101 212.774 425.841 217.325H400.807V209.003ZM400.222 219.275H425.711C424.736 234.357 422.265 265.301 416.933 311.003C416.933 311.198 416.933 311.328 416.998 311.458L412.381 313.668V303.527C412.381 303.266 412.316 303.071 412.121 302.876V298.196V298.131C412.121 298.066 412.121 298.001 412.121 297.936C411.991 297.481 411.601 297.156 411.146 297.156H400.677C400.547 297.156 400.417 297.156 400.287 297.221L380.194 306.777C392.744 261.856 398.141 232.797 400.222 219.275ZM400.872 299.106H406.854L375.057 314.513L365.889 318.934V315.683L400.872 299.106ZM360.622 299.106L317.902 319.584H312.309L354.64 299.106H360.622ZM275.636 210.954H306.457V220.25H275.636V210.954ZM301.385 222.2L302.231 239.623H278.562L279.277 222.2H301.385ZM267.378 279.018C268.028 282.529 270.694 296.896 273.555 311.263L272.45 336.941L272.32 339.606L271.279 364.375H269.394H267.248H237.922V296.896H238.507C239.028 296.896 239.483 296.441 239.483 295.92C239.483 295.4 239.028 294.945 238.507 294.945H237.922V279.018H267.378ZM235.971 294.945H231.745V257.24H235.971V294.945ZM235.971 255.29H231.745V233.447H235.971V255.29ZM212.433 218.82H236.427V224.541H234.281H214.579H212.433V218.82ZM215.489 226.426H233.24V231.497H230.77H215.489V226.426ZM215.489 233.512H229.794V255.29H215.489V233.512ZM229.794 257.24V294.945H215.489V257.24H229.794ZM207.426 279.018H213.538V294.945H211.392C210.872 294.945 210.417 295.4 210.417 295.92C210.417 296.441 210.872 296.896 211.392 296.896H213.538V364.375H199.103C198.583 364.375 198.128 364.83 198.128 365.35V375.231H197.672C194.226 375.231 191.43 378.027 191.43 381.472C191.43 384.918 194.226 387.713 197.672 387.713H198.128V409.946H197.672C194.226 409.946 191.43 412.742 191.43 416.187C191.43 419.633 194.226 422.428 197.672 422.428H198.128V431.204H164.575C199.103 338.761 206.516 286.299 207.426 279.018Z" fill="#74A2B4"/>
<path d="M1311.47 120.267C1324.86 120.267 1335.91 110.255 1337.22 96.9285L1337.35 95.6283L1338.65 95.4333C1352.11 93.353 1361.86 81.9764 1361.86 68.3895C1361.86 63.8389 1360.69 59.3533 1358.54 55.3227L1357.31 52.9824L1359.91 52.8524C1371.29 52.3323 1380.2 42.971 1380.2 31.5944C1380.2 19.8278 1370.64 10.2715 1358.87 10.2715C1350.29 10.2715 1342.55 15.4072 1339.23 23.3383L1338.65 24.8335L1337.15 24.2484C1334.29 23.1433 1331.3 22.5582 1328.31 22.5582C1314.91 22.5582 1303.99 33.4797 1303.99 46.9366C1303.99 51.5522 1305.29 56.1028 1307.82 59.9383L1308.21 60.5234L1308.02 61.2385C1307.5 63.3188 1307.17 65.3991 1307.11 67.5444L1307.04 68.8446L1305.81 69.1046C1293.91 71.77 1285.65 82.1714 1285.65 94.3281C1285.59 108.63 1297.16 120.267 1311.47 120.267ZM1306.59 72.9401L1310.82 71.965L1310.95 67.6744C1311.01 65.8542 1311.27 64.0339 1311.73 62.2787L1312.38 59.9383L1311.08 57.8581C1308.99 54.6076 1307.89 50.7721 1307.89 46.9366C1307.89 35.625 1317.06 26.4587 1328.31 26.4587C1330.84 26.4587 1333.31 26.9138 1335.72 27.8889L1340.73 29.8392L1342.81 24.8335C1345.54 18.3326 1351.85 14.172 1358.87 14.172C1368.49 14.172 1376.29 21.9731 1376.29 31.5944C1376.29 40.8907 1369.01 48.4968 1359.71 48.9518L1350.87 49.3419L1355.03 57.143C1356.85 60.5234 1357.83 64.424 1357.83 68.3245C1357.83 79.9611 1349.44 89.7775 1337.93 91.5327L1333.64 92.1828L1333.25 96.4734C1332.14 107.785 1322.78 116.301 1311.4 116.301C1299.31 116.301 1289.42 106.42 1289.42 94.3281C1289.49 84.0567 1296.51 75.2155 1306.59 72.9401Z" fill="#C8D6DC"/>
<path d="M132.063 340.452H89.4728L83.0354 145.881C86.7418 145.751 89.6679 142.695 89.6679 138.99C89.6679 135.219 86.6118 132.099 82.7754 132.099H35.9582C32.1868 132.099 29.0657 135.154 29.0657 138.99C29.0657 142.565 31.7967 145.49 35.2429 145.816L27.7002 357.81C17.8165 356.9 4.61669 355.47 3.05612 354.884C3.44626 355.014 4.03148 355.665 3.96645 356.575L0.390143 356.185L0.195072 357.615L0 379.523C1.23545 380.173 2.47091 380.953 3.57631 381.798L3.77138 358.785C7.34769 359.5 14.6304 360.28 29.2607 361.645L31.1464 361.84L39.0793 142.37H36.0232C34.2025 142.37 32.772 140.875 32.772 139.12C32.772 137.299 34.2676 135.869 36.0232 135.869H82.8404C84.661 135.869 86.0916 137.364 86.0916 139.12C86.0916 140.94 84.596 142.37 82.8404 142.37H79.3291L86.0266 344.158H135.705V269.593L194.291 251.91V248.14L132.128 266.862V340.452H132.063Z" fill="#C8D6DC"/>
<path d="M701.932 195.027L699.202 8.77621L700.242 8.25614C701.802 7.54104 702.778 6.04583 702.778 4.3556C702.778 1.95027 700.827 0 698.421 0H676.508C674.102 0 672.152 1.95027 672.152 4.3556C672.152 6.24086 673.387 7.9311 675.273 8.45117L676.573 8.84122L673.062 195.027H667.275L661.163 254.315H621.823L617.076 195.027H608.688L606.152 52.1372L606.933 51.6171C608.103 50.837 608.818 49.4718 608.818 48.0416C608.818 45.6363 606.868 43.686 604.462 43.686H582.614C580.208 43.686 578.257 45.6363 578.257 48.0416C578.257 50.1219 579.753 51.9422 581.899 52.3322L583.459 52.5923L580.273 195.092H574.291L568.178 254.38H532.35L527.604 195.092H520.711L518.63 102.649L519.671 102.129C521.231 101.414 522.142 99.9188 522.142 98.2286C522.142 95.8232 520.191 93.873 517.785 93.873H495.872C493.466 93.873 491.515 95.8232 491.515 98.2286C491.515 100.114 492.751 101.804 494.637 102.389L495.937 102.779L493.466 187.226H497.042L499.578 100.114L495.612 98.9437C495.287 98.8787 495.092 98.5536 495.092 98.2286C495.092 97.8385 495.417 97.5135 495.807 97.5135H517.72C518.11 97.5135 518.435 97.8385 518.435 98.2286C518.435 98.4886 518.24 98.7486 517.98 98.8787L514.794 100.374L517.005 198.667H524.092L528.839 257.956H571.235L577.347 198.667H583.589L586.97 49.5368L582.354 48.7567C581.964 48.6917 581.703 48.4317 581.703 48.0416C581.703 47.6516 582.029 47.3265 582.419 47.3265H604.332C604.722 47.3265 605.047 47.6516 605.047 48.0416C605.047 48.3017 604.917 48.4967 604.722 48.6267L602.316 50.2519L604.917 198.602H613.5L618.247 257.891H664.154L670.266 198.602H676.313L679.954 6.17585L675.988 5.00569C675.663 4.87567 675.468 4.68064 675.468 4.3556C675.468 3.96555 675.793 3.6405 676.183 3.6405H698.096C698.486 3.6405 698.811 3.96555 698.811 4.3556C698.811 4.61564 698.616 4.87567 698.356 5.00569L695.17 6.5009L698.031 198.667H706.484L708.5 223.566H712.141L709.865 195.027H701.932Z" fill="#C8D6DC"/>
<path d="M924.444 167.333H925.744V162.327H924.444V135.089C924.444 113.115 908.773 94.4579 887.12 90.6874L885.625 90.4273V82.3662H874.18V90.2323L872.62 90.4273C850.642 93.6778 834.061 112.855 834.061 135.023V162.327H833.345V167.333H834.061V206.403H830.289V221.615H834.191L834.386 223.176C835.556 233.057 840.043 242.353 847.065 249.439L847.716 250.154L847.521 251.065C846.61 255.485 845.57 259.711 844.399 263.676H848.171C849.276 259.906 850.252 255.94 851.097 251.78L851.682 248.984L849.666 246.969C843.229 240.468 839.133 231.887 838.027 222.786L837.442 218.04H833.931V210.044H837.702V135.089C837.702 114.676 852.918 96.9932 873.14 94.0028L877.757 93.3527V86.0067H881.983V93.4177L886.47 94.1979C906.367 97.7083 920.802 114.871 920.802 135.089V209.979H925.289V217.975H921.063L920.477 222.721C919.502 230.912 916.121 238.518 910.724 244.824L909.033 246.774L909.488 249.374C910.399 254.445 911.569 259.191 912.87 263.676H916.641C915.21 258.996 914.04 254.055 913.065 248.724L912.935 247.879L913.52 247.229C919.372 240.403 923.078 232.082 924.119 223.176L924.314 221.615H928.995V206.403H924.509V167.333H924.444Z" fill="#C8D6DC"/>
<path d="M1109.57 214.204C1109.57 203.088 1101.18 193.922 1090.12 192.882L1087.91 192.687L1085.7 192.947C1074.84 194.182 1066.65 203.348 1066.65 214.269V270.632H970.546V274.208H1070.23V214.269C1070.23 205.168 1077.06 197.562 1086.09 196.522L1087.98 196.327L1089.8 196.522C1099.03 197.367 1105.99 205.038 1105.99 214.269V274.143H1176.28V327.515H1179.86V270.567H1109.57V214.204Z" fill="#C8D6DC"/>
<path d="M1445.74 368.405C1444.37 360.019 1444.37 360.019 1442.68 360.019H1441.9L1441.84 360.084L1412.06 360.149L1411.41 359.564C1402.3 350.853 1388.97 334.536 1377.07 306.582C1362.64 272.712 1353.93 230.586 1351.26 181.44L1351.2 178.514H1352.95V173.118H1351L1350.93 171.363C1350.87 169.153 1350.8 166.878 1350.74 164.472V162.652H1352.95V157.191H1350.67L1350.61 148.09H1354.9V135.738H1270.57V148.09H1275.83L1275.51 157.191H1272.91V162.652H1275.31L1275.25 164.537C1275.12 166.943 1275.05 169.218 1274.92 171.428L1274.79 173.118H1272.97V178.514H1274.53L1274.34 181.31C1274.21 183 1274.08 184.56 1274.01 185.99C1270.05 232.147 1261.59 267.902 1252.23 295.01H1256C1265.3 267.772 1273.69 232.082 1277.59 186.315C1277.72 184.82 1277.85 183.26 1277.98 181.57L1278.43 174.939H1278.37L1278.56 171.623C1278.69 169.413 1278.82 167.073 1278.89 164.667L1279.67 144.449H1274.27V139.249H1351.39V144.449H1347.1L1347.23 159.011L1347.29 164.472C1347.36 166.878 1347.42 169.218 1347.49 171.428L1347.88 181.57C1350.54 231.171 1359.32 273.752 1373.95 308.012C1386.11 336.551 1399.77 353.193 1409.13 362.165L1410.82 363.79L1441.45 363.725C1441.77 365.415 1442.29 368.47 1442.88 372.306C1443.85 371.201 1444.89 370.226 1446 369.251C1445.8 368.926 1445.8 368.665 1445.74 368.405Z" fill="#C8D6DC"/>
</g>
</svg>
